# Blender v2.93.5 OBJ File: 'PlantConcept.blend'
# www.blender.org
mtllib Bush.mtl
o Sphere
v 0.326969 0.000446 -1.516483
v 0.390245 0.744974 -1.249071
v -1.319475 0.000014 0.872989
v 0.617393 0.532457 -1.054883
v 0.772289 0.419214 -0.969936
v -1.347869 0.793318 -0.124293
v -0.191550 0.830739 -1.339241
v 1.389201 0.817578 0.222290
v 1.043649 1.094042 -0.381690
v 1.445566 0.458726 -0.547145
v 1.548752 0.305150 -0.151840
v 1.177531 0.185569 -0.920580
v 1.036263 -0.001846 1.134626
v 0.983902 1.160544 0.653216
v 1.558998 0.005644 -0.197799
v 0.956770 -0.009764 -1.178622
v 0.418890 0.299194 1.487728
v -0.516978 0.956623 -0.500440
v 0.551201 1.413448 -0.099891
v -0.152913 0.313763 1.532019
v -0.413036 0.921340 -0.819889
v 0.671712 1.267404 -0.478291
v -0.545174 1.265478 0.349917
v -0.608747 1.063668 -0.253162
v -1.164369 0.961250 0.339493
v -0.751632 0.305484 1.348851
v -1.063751 0.628547 0.905503
v -0.389581 0.939360 0.759520
v -0.089676 0.952664 0.868197
v -1.372470 0.634269 0.426571
v -0.194594 0.569754 1.388963
v -0.645303 0.567950 1.235995
v 0.483942 0.597206 1.355567
v -1.465053 0.341532 -0.427983
v -0.592409 0.401760 -1.450107
v -0.668728 1.137722 -0.089352
v -1.270834 0.341135 0.875490
v -0.355074 -0.003191 -1.545785
v -1.104616 -0.000213 -1.119797
v -1.563719 0.000005 0.134847
v 0.144925 0.912187 -1.269999
v 0.564621 1.017278 -0.920039
v -0.792834 0.559700 -1.259910
v -0.565953 0.781968 -1.154044
v 0.495649 1.299785 0.815171
v 0.739948 0.990828 1.134345
v 0.652248 1.142200 1.046683
v 0.311490 0.875974 1.164415
v 1.042868 0.745742 1.102799
v 1.298019 0.577385 0.780682
v 0.796275 1.409854 0.525769
v 1.170437 1.153913 0.183085
v 0.912040 1.336257 -0.011681
v -1.256589 0.493951 -0.819138
v -1.015427 0.953636 -0.442346
v -1.118512 0.849470 -0.643608
v -1.489960 0.000006 -0.475989
v -1.531767 0.285926 0.171382
v -1.051665 1.066507 0.151692
v -0.216971 1.433225 0.102489
v 0.016940 1.498717 0.283849
v -0.615264 0.000044 1.460964
v -0.135965 1.350167 0.475170
v 0.154400 0.000237 1.570322
v 0.811462 0.006434 1.351246
v 1.194211 0.951294 0.866619
v 1.486848 -0.028189 0.425375
v 1.485774 0.490866 0.325611
v 1.429268 0.625674 -0.268806
v 1.393150 0.002305 -0.749930
v 0.924370 0.844779 -0.674781
v 0.639845 0.235184 -1.362630
v -0.155765 0.974054 -1.115900
v 0.315299 0.355128 -1.465116
v -0.066468 0.419118 -1.509355
v -0.020025 1.177916 -0.345391
v -0.200491 1.187557 -0.272640
v 0.289986 -0.259886 -1.167661
v -0.988205 -0.260222 0.687367
v 0.840635 -0.261666 0.890485
v 0.254636 -0.259873 0.050519
v 1.246452 -0.255851 -0.143922
v 0.778922 -0.267813 -0.905369
v 0.813390 -0.302331 0.362413
v -0.239507 -0.262711 -1.190410
v -0.821402 -0.260399 -0.859700
v -1.177819 -0.260229 0.114323
v -1.120558 -0.260228 -0.359890
v -0.441501 -0.260199 1.143832
v 0.156015 -0.260049 1.228730
v 0.666114 -0.255238 1.058654
v 1.190439 -0.282117 0.339869
v 1.117699 -0.258444 -0.572560
vt 0.564981 0.871391
vt 0.568074 0.885003
vt 0.463814 0.883114
vt 0.686082 0.740170
vt 0.645035 0.762681
vt 0.726383 0.661955
vt 0.793470 0.727091
vt 0.734969 0.795471
vt 0.650985 0.844233
vt 0.891843 0.523377
vt 0.894558 0.535556
vt 0.864499 0.628132
vt 0.849562 0.424233
vt 0.860180 0.554373
vt 0.875154 0.396854
vt 0.850609 0.681869
vt 0.777615 0.634867
vt 0.687840 0.723060
vt 0.067047 0.447406
vt 0.086593 0.609275
vt 0.184483 0.578510
vt 0.169309 0.452845
vt 0.584842 0.814140
vt 0.387334 0.892768
vt 0.791590 0.434623
vt 0.757992 0.584286
vt 0.318385 0.095989
vt 0.131771 0.251800
vt 0.219557 0.300990
vt 0.364431 0.180028
vt 0.875438 0.370417
vt 0.522344 0.067009
vt 0.522771 0.157530
vt 0.756035 0.182467
vt 0.704194 0.247164
vt 0.796891 0.393075
vt 0.558273 0.792567
vt 0.417959 0.798595
vt 0.696463 0.125063
vt 0.657946 0.202599
vt 0.188708 0.779883
vt 0.263759 0.710958
vt 0.825399 0.276261
vt 0.519833 0.819686
vt 0.631051 0.726947
vt 0.428298 0.555389
vt 0.344430 0.615755
vt 0.320112 0.550227
vt 0.627494 0.509611
vt 0.723116 0.486235
vt 0.659430 0.609885
vt 0.378190 0.281869
vt 0.457664 0.253070
vt 0.445398 0.357221
vt 0.429861 0.115069
vt 0.310425 0.155605
vt 0.476121 0.574667
vt 0.423931 0.455981
vt 0.563972 0.174573
vt 0.199537 0.243184
vt 0.282248 0.125698
vt 0.172874 0.393175
vt 0.117727 0.370100
vt 0.485917 0.407921
vt 0.336958 0.390413
vt 0.202740 0.442942
vt 0.124247 0.516077
vt 0.144661 0.251138
vt 0.304217 0.506818
vt 0.212343 0.600360
vt 0.331452 0.788958
vt 0.371975 0.700408
vt 0.440151 0.778850
vt 0.271329 0.817012
vt 0.430668 0.838035
vt 0.324441 0.867414
vt 0.075514 0.437724
vt 0.609671 0.123919
vt 0.440906 0.077159
vt 0.757785 0.190901
vt 0.592433 0.088896
vt 0.797890 0.253488
vt 0.677512 0.182542
vt 0.612773 0.267122
vt 0.692438 0.343813
vt 0.811734 0.521279
vt 0.654272 0.205772
vt 0.742159 0.310039
vt 0.093193 0.596554
vt 0.148435 0.700209
vt 0.185026 0.653694
vt 0.548906 0.469752
vt 0.696974 0.387101
vn 0.1380 0.1464 -0.9795
vn 0.6143 0.2896 -0.7340
vn 0.6274 0.2604 -0.7339
vn 0.3558 0.4434 -0.8227
vn 0.9715 0.0681 -0.2271
vn 0.9419 0.3318 -0.0528
vn 0.9576 0.2876 0.0144
vn 0.4525 -0.7764 -0.4387
vn -0.5603 -0.8255 -0.0677
vn 0.4775 0.7227 -0.4997
vn 0.4039 0.3828 -0.8309
vn 0.0426 0.0570 -0.9975
vn 0.3464 0.1456 -0.9267
vn 0.7773 0.5830 -0.2363
vn 0.5444 0.5165 -0.6609
vn 0.5207 0.4666 -0.7150
vn 0.9575 0.0179 -0.2877
vn -0.3790 -0.8063 0.4540
vn 0.4715 -0.0514 -0.8804
vn 0.9929 0.0244 0.1163
vn -0.0856 -0.7927 0.6036
vn -0.5434 -0.8200 0.1798
vn 0.6903 0.1538 -0.7070
vn 0.5401 -0.7554 0.3711
vn 0.0299 -0.8026 -0.5958
vn 0.4289 -0.7687 0.4745
vn -0.4879 -0.8227 -0.2917
vn 0.7848 0.4734 -0.4000
vn 0.6735 0.5556 -0.4875
vn 0.2053 -0.7780 0.5938
vn 0.8420 -0.0524 0.5369
vn 0.2844 -0.7825 -0.5539
vn 0.8375 0.5286 -0.1382
vn 0.7715 0.5645 -0.2934
vn 0.9437 0.3052 -0.1278
vn 0.3468 0.4028 -0.8471
vn 0.6276 0.2713 -0.7298
vn -0.2772 0.8400 -0.4665
vn 0.6402 0.4367 -0.6320
vn 0.2646 0.9250 -0.2728
vn 0.4694 0.8060 -0.3607
vn -0.2823 0.6577 0.6984
vn -0.1919 0.8087 0.5560
vn -0.1181 0.8394 -0.5305
vn -0.2462 0.8039 0.5415
vn -0.4891 0.5042 0.7117
vn -0.6925 0.5614 0.4531
vn 0.1799 0.7021 0.6889
vn -0.6409 -0.0044 0.7676
vn -0.3843 0.7644 0.5176
vn -0.6796 0.7336 0.0033
vn -0.1947 0.7300 0.6552
vn -0.7350 0.4795 0.4795
vn -0.0465 0.9037 -0.4256
vn -0.4019 0.8958 -0.1897
vn -0.5661 0.8028 -0.1871
vn 0.9920 0.0147 0.1251
vn -0.3373 0.5183 -0.7859
vn -0.0536 0.9090 -0.4134
vn -0.0165 0.9163 -0.4001
vn -0.1163 0.3490 -0.9299
vn -0.8219 0.5560 0.1238
vn -0.9250 0.3741 0.0667
vn -0.1758 0.8200 -0.5447
vn 0.0897 0.4036 -0.9105
vn -0.0961 0.8447 -0.5266
vn -0.1673 0.9600 -0.2245
vn -0.3915 0.8410 -0.3735
vn -0.4522 0.8585 -0.2420
vn -0.3246 0.8116 -0.4858
vn 0.7539 0.2509 -0.6072
vn 0.1680 0.3713 -0.9132
vn 0.6694 0.7079 -0.2253
vn 0.4682 0.7155 -0.5186
vn 0.4424 0.5616 -0.6992
vn 0.2285 0.8224 -0.5210
vn -0.2685 0.8004 -0.5360
vn -0.1123 0.9100 -0.3991
vn -0.1936 0.8930 -0.4063
vn -0.2970 0.9346 -0.1957
vn -0.3958 0.9135 0.0943
vn -0.3655 0.9203 0.1391
vn -0.3913 0.6896 -0.6094
vn -0.3054 0.8548 0.4197
vn -0.3383 0.8157 -0.4692
vn -0.3841 0.9071 -0.1723
vn -0.6676 0.0898 0.7391
vn -0.2726 0.8243 0.4962
vn -0.2253 0.8234 0.5209
vn -0.3407 0.6682 0.6614
vn -0.6125 0.3682 0.6995
vn -0.2847 0.4737 0.8334
vn 0.0230 0.4906 0.8711
vn 0.3611 0.1935 0.9122
vn 0.7886 0.0192 0.6146
vn 0.7120 0.2152 -0.6684
vn 0.6941 0.0245 0.7194
vn 0.0810 0.3892 0.9176
vn -0.2688 0.4362 0.8588
vn 0.9268 0.0728 0.3685
vn 0.4861 0.2634 0.8332
vn -0.2885 0.2138 0.9333
vn 0.0172 0.5726 0.8196
vn -0.4926 -0.0841 -0.8662
vn 0.9182 0.3372 0.2079
vn -0.0824 0.5284 0.8450
vn 0.3164 -0.0179 0.9485
vn -0.0496 0.9581 -0.2820
vn -0.9265 0.1826 0.3290
vn -0.3680 0.7119 0.5981
vn -0.1406 -0.0169 0.9899
vn 0.1266 0.9910 -0.0439
vn 0.6129 -0.7695 -0.1794
vn -0.2884 -0.8155 -0.5018
vn 0.6447 -0.7637 0.0332
vn 0.9213 0.1761 0.3466
vn -0.4323 0.8721 0.2293
vn 0.0807 0.1984 0.9768
vn 0.8026 0.0872 0.5902
vn 0.5712 0.8208 0.0106
vn 0.2280 0.9701 -0.0837
vn 0.8234 0.5513 0.1348
vn 0.3290 0.2910 0.8984
vn -0.0647 0.4717 0.8794
vn 0.5704 0.7927 0.2151
vn 0.6990 0.6630 0.2680
vn 0.5523 0.6695 0.4967
vn 0.4736 0.4912 0.7310
vn -0.3014 0.6810 0.6674
vn 0.5771 0.6331 0.5159
vn -0.3458 0.6816 0.6448
vn 0.1509 0.8617 0.4845
vn 0.3437 0.8172 0.4626
vn -0.8950 0.1254 -0.4281
vn -0.8585 0.4202 -0.2938
vn -0.9875 0.1229 -0.0985
vn -0.9329 0.1306 0.3355
vn -0.0562 0.8982 -0.4361
vn -0.1158 0.1636 -0.9797
vn -0.4313 0.7071 -0.5604
vn -0.0029 0.9357 0.3529
vn -0.3560 0.9091 -0.2163
vn -0.6514 0.2380 -0.7204
vn -0.6235 0.5272 -0.5773
vn -0.1122 0.9621 -0.2487
vn -0.6888 -0.0012 -0.7249
vn -0.8570 0.0485 -0.5130
vn -0.9889 0.0889 -0.1194
vn -0.9510 0.2992 -0.0781
vn -0.5423 0.8267 -0.1501
vn -0.9473 0.0658 0.3135
vn -0.8233 0.4740 -0.3124
vn -0.0160 -0.9999 -0.0005
vn 0.0005 -1.0000 0.0000
vn 0.0047 -0.9999 0.0152
vn 0.0002 -1.0000 -0.0002
vn 0.0308 -0.9995 -0.0032
vn -0.1011 -0.9938 0.0458
vn -0.0027 -0.9994 0.0354
vn 0.0064 -0.9999 0.0118
vn -0.0167 -0.9943 -0.1055
vn 0.0506 -0.9976 -0.0483
vn 0.0047 -1.0000 0.0027
vn 0.0001 -1.0000 0.0004
vn 0.0581 -0.9951 0.0796
vn 0.0000 -1.0000 0.0000
vn 0.0030 -0.9998 -0.0193
vn 0.0003 -1.0000 -0.0000
usemtl Grass.001
s off
f 74/1/1 1/2/1 75/3/1
f 5/4/2 4/5/2 71/6/2
f 12/7/3 16/8/3 72/9/3
f 12/7/4 5/4/4 71/6/4
f 11/10/5 15/11/5 10/12/5
f 8/13/6 11/10/6 69/14/6
f 68/15/7 11/10/7 8/13/7
f 16/8/8 70/16/8 93/17/8 83/18/8
f 40/19/9 57/20/9 88/21/9 87/22/9
f 5/4/10 12/7/10 72/9/10
f 74/1/11 2/23/11 72/9/11
f 1/2/12 38/24/12 75/3/12
f 72/9/13 1/2/13 74/1/13
f 52/25/14 69/14/14 9/26/14
f 9/26/15 10/12/15 71/6/15
f 10/12/16 12/7/16 71/6/16
f 15/11/17 70/16/17 10/12/17
f 62/27/18 3/28/18 79/29/18 89/30/18
f 16/8/19 1/2/19 72/9/19
f 15/11/20 68/15/20 67/31/20
f 64/32/21 62/27/21 89/30/21 90/33/21
f 3/28/22 40/19/22 87/22/22 79/29/22
f 16/8/23 12/7/23 70/16/23
f 67/31/24 13/34/24 80/35/24 92/36/24
f 38/24/25 1/2/25 78/37/25 85/38/25
f 13/34/26 65/39/26 91/40/26 80/35/26
f 57/20/27 39/41/27 86/42/27 88/21/27
f 2/23/28 4/5/28 72/9/28
f 4/5/29 5/4/29 72/9/29
f 65/39/30 64/32/30 90/33/30 91/40/30
f 13/34/31 67/31/31 50/43/31
f 1/2/32 16/8/32 83/18/32 78/37/32
f 69/14/33 52/25/33 8/13/33
f 10/12/34 9/26/34 69/14/34
f 10/12/35 69/14/35 11/10/35
f 41/44/36 2/23/36 74/1/36
f 42/45/37 71/6/37 4/5/37
f 77/46/38 18/47/38 24/48/38
f 9/26/39 71/6/39 42/45/39
f 19/49/40 53/50/40 22/51/40
f 9/26/41 22/51/41 53/50/41
f 28/52/42 29/53/42 63/54/42
f 31/55/43 29/53/43 32/56/43
f 19/49/44 76/57/44 60/58/44
f 48/59/45 29/53/45 31/55/45
f 27/60/46 26/61/46 32/56/46
f 27/60/47 25/62/47 30/63/47
f 63/54/48 29/53/48 61/64/48
f 62/27/49 26/61/49 3/28/49
f 23/65/50 25/62/50 27/60/50
f 25/62/51 59/66/51 6/67/51
f 27/60/52 28/52/52 23/65/52
f 30/63/53 37/68/53 27/60/53
f 36/69/54 24/48/54 55/70/54
f 44/71/55 21/72/55 73/73/55
f 6/67/56 59/66/56 55/70/56
f 68/15/57 15/11/57 11/10/57
f 43/74/58 7/75/58 35/76/58
f 24/48/59 18/47/59 55/70/59
f 73/73/60 22/51/60 41/44/60
f 35/76/61 7/75/61 75/3/61
f 6/67/62 30/63/62 25/62/62
f 6/67/63 58/77/63 30/63/63
f 76/57/64 77/46/64 60/58/64
f 7/75/65 41/44/65 75/3/65
f 73/73/66 41/44/66 7/75/66
f 76/57/67 22/51/67 73/73/67
f 36/69/68 59/66/68 60/58/68
f 77/46/69 21/72/69 18/47/69
f 36/69/70 60/58/70 24/48/70
f 42/45/71 4/5/71 2/23/71
f 41/44/72 74/1/72 75/3/72
f 53/50/73 52/25/73 9/26/73
f 22/51/74 9/26/74 42/45/74
f 41/44/75 42/45/75 2/23/75
f 22/51/76 42/45/76 41/44/76
f 77/46/77 24/48/77 60/58/77
f 21/72/78 77/46/78 76/57/78
f 22/51/79 76/57/79 19/49/79
f 36/69/80 55/70/80 59/66/80
f 23/65/81 60/58/81 59/66/81
f 23/65/82 61/64/82 60/58/82
f 7/75/83 43/74/83 44/71/83
f 23/65/84 63/54/84 61/64/84
f 7/75/85 44/71/85 73/73/85
f 73/73/86 21/72/86 76/57/86
f 26/61/87 37/68/87 3/28/87
f 28/52/88 27/60/88 32/56/88
f 29/53/89 28/52/89 32/56/89
f 28/52/90 63/54/90 23/65/90
f 26/61/91 27/60/91 37/68/91
f 31/55/92 32/56/92 26/61/92
f 33/78/93 31/55/93 20/79/93
f 33/78/94 65/39/94 49/80/94
f 49/80/95 13/34/95 50/43/95
f 10/12/96 70/16/96 12/7/96
f 13/34/97 49/80/97 65/39/97
f 17/81/98 33/78/98 20/79/98
f 20/79/99 31/55/99 26/61/99
f 50/43/100 67/31/100 68/15/100
f 65/39/101 33/78/101 17/81/101
f 26/61/102 62/27/102 20/79/102
f 48/59/103 31/55/103 33/78/103
f 39/41/104 35/76/104 38/24/104
f 8/13/105 66/82/105 68/15/105
f 46/83/106 48/59/106 33/78/106
f 65/39/107 17/81/107 64/32/107
f 61/64/108 19/49/108 60/58/108
f 37/68/109 30/63/109 58/77/109
f 61/64/110 29/53/110 45/84/110
f 64/32/111 20/79/111 62/27/111
f 51/85/112 19/49/112 61/64/112
f 70/16/113 15/11/113 82/86/113 93/17/113
f 39/41/114 38/24/114 85/38/114 86/42/114
f 15/11/115 67/31/115 92/36/115 82/86/115
f 66/82/116 50/43/116 68/15/116
f 59/66/117 25/62/117 23/65/117
f 17/81/118 20/79/118 64/32/118
f 66/82/119 49/80/119 50/43/119
f 53/50/120 51/85/120 52/25/120
f 53/50/121 19/49/121 51/85/121
f 52/25/122 66/82/122 8/13/122
f 46/83/123 33/78/123 49/80/123
f 48/59/124 46/83/124 47/87/124
f 66/82/125 52/25/125 14/88/125
f 51/85/126 14/88/126 52/25/126
f 51/85/127 47/87/127 14/88/127
f 49/80/128 66/82/128 46/83/128
f 45/84/129 48/59/129 47/87/129
f 47/87/130 46/83/130 14/88/130
f 48/59/131 45/84/131 29/53/131
f 47/87/132 51/85/132 45/84/132
f 46/83/133 66/82/133 14/88/133
f 57/20/134 34/89/134 54/90/134
f 34/89/135 6/67/135 54/90/135
f 40/19/136 58/77/136 34/89/136
f 3/28/137 37/68/137 58/77/137
f 55/70/138 18/47/138 56/91/138
f 38/24/139 35/76/139 75/3/139
f 43/74/140 56/91/140 44/71/140
f 61/64/141 45/84/141 51/85/141
f 18/47/142 21/72/142 44/71/142
f 39/41/143 54/90/143 35/76/143
f 54/90/144 56/91/144 43/74/144
f 18/47/145 44/71/145 56/91/145
f 54/90/146 43/74/146 35/76/146
f 57/20/147 54/90/147 39/41/147
f 40/19/148 34/89/148 57/20/148
f 58/77/149 6/67/149 34/89/149
f 55/70/150 56/91/150 6/67/150
f 3/28/151 58/77/151 40/19/151
f 6/67/152 56/91/152 54/90/152
f 83/18/153 81/92/153 78/37/153
f 86/42/154 78/37/154 81/92/154
f 86/42/155 85/38/155 78/37/155
f 81/92/156 89/30/156 79/29/156
f 93/17/157 82/86/157 83/18/157
f 84/93/158 91/40/158 81/92/158
f 91/40/159 92/36/159 80/35/159
f 81/92/160 83/18/160 82/86/160
f 82/86/161 84/93/161 81/92/161
f 92/36/162 84/93/162 82/86/162
f 89/30/163 81/92/163 91/40/163
f 88/21/164 86/42/164 81/92/164
f 91/40/165 84/93/165 92/36/165
f 87/22/166 88/21/166 79/29/166
f 90/33/167 89/30/167 91/40/167
f 88/21/168 81/92/168 79/29/168
