# Blender v2.93.5 OBJ File: 'PlantConcept.blend'
# www.blender.org
mtllib Grass.mtl
o Plane.006_Plane.007
v 0.075714 0.014508 -0.210329
v -0.704280 0.679425 -1.527209
v -0.131659 -0.012198 -0.149039
v -0.225084 0.645433 -0.805479
v -0.423337 0.618345 -0.703718
v 0.111904 0.053604 0.214553
v 1.616181 0.600322 0.052808
v 0.086403 0.000995 -0.046901
v 0.805367 0.699708 0.156858
v 0.805216 0.640177 -0.052835
v 0.219953 -0.011843 -0.151357
v 0.052122 0.649334 -1.645319
v -0.018023 -0.001769 -0.119921
v 0.207026 0.648412 -0.856253
v -0.019939 0.627171 -0.827942
v -0.138290 -0.057982 -0.212303
v -1.652812 0.622801 -0.056750
v -0.157986 0.014742 -0.007636
v -0.855792 0.668826 -0.160784
v -0.842483 0.659305 0.057762
v -0.195816 0.012257 0.037101
v 0.002081 0.591663 1.637118
v 0.053501 0.029380 0.068331
v -0.183952 0.615749 0.761620
v 0.040747 0.662464 0.716773
v 0.022416 0.012264 0.237306
v 0.724638 0.665809 1.583244
v 0.260574 0.047944 0.196675
v 0.292414 0.673646 0.913658
v 0.486798 0.636621 0.785327
v -0.316491 0.002422 -0.002772
v -1.430442 0.652117 1.039680
v -0.202239 -0.063489 0.150825
v -0.937304 0.679898 0.380316
v -0.764566 0.622561 0.609414
v 0.072757 0.007372 -0.216672
v -0.704453 0.669445 -1.527748
v -0.134617 -0.019333 -0.155382
v -0.227039 0.636609 -0.809744
v -0.425221 0.609436 -0.707836
v 0.114390 0.045025 0.218763
v 1.616991 0.590564 0.054783
v 0.088889 -0.007585 -0.042691
v 0.807555 0.690809 0.160679
v 0.806417 0.630571 -0.050329
v 0.217264 -0.019405 -0.157294
v 0.052271 0.639339 -1.645143
v -0.020712 -0.009331 -0.125858
v 0.206470 0.638524 -0.857603
v -0.022239 0.618903 -0.833047
v -0.140005 -0.067328 -0.214569
v -1.652859 0.612805 -0.056946
v -0.159701 0.005396 -0.009902
v -0.857174 0.659242 -0.162638
v -0.842909 0.649343 0.057094
v -0.193058 0.004763 0.043103
v 0.002297 0.581679 1.637261
v 0.056259 0.021886 0.074333
v -0.183081 0.605927 0.763257
v 0.043146 0.654249 0.721936
v 0.025317 0.004895 0.243410
v 0.724589 0.655817 1.583378
v 0.263474 0.040575 0.202779
v 0.294050 0.664450 0.917221
v 0.488803 0.627824 0.789634
v -0.317340 -0.007265 -0.003140
v -1.431293 0.642297 1.038003
v -0.203088 -0.073177 0.150457
v -0.938160 0.670052 0.379028
v -0.765421 0.612768 0.608647
vt 0.626459 0.221862
vt 0.703373 0.077521
vt 0.773070 0.221864
vt 0.662614 0.148115
vt 0.508768 0.148115
vt 0.504446 0.001568
vt 0.653758 0.007808
vt 0.057300 0.444628
vt 0.001539 0.953916
vt 0.013858 0.497375
vt 0.052751 0.001763
vt 0.001518 0.053683
vt 0.930812 0.201511
vt 0.998137 0.027702
vt 0.998137 0.327854
vt 0.251540 0.115913
vt 0.244311 0.363077
vt 0.153385 0.252498
vt 0.153385 0.001765
vt 0.152806 0.460299
vt 0.123144 0.963315
vt 0.111475 0.509415
vt 0.147482 0.001732
vt 0.111475 0.069765
vt 0.788636 0.001647
vt 0.977228 0.073089
vt 0.660745 0.073089
vt 0.253726 0.251180
vt 0.255222 0.001766
vt 0.351875 0.111850
vt 0.351875 0.352053
vt 0.711259 0.077496
vt 0.858749 0.077501
vt 0.773621 0.216162
vt 0.354875 0.169630
vt 0.354875 0.001938
vt 0.502159 0.039686
vt 0.507081 0.187649
vt 0.108651 0.516207
vt 0.060296 0.998429
vt 0.059472 0.480716
vt 0.093555 0.025735
vt 0.060296 0.001748
vt 0.626459 0.221862
vt 0.773070 0.221864
vt 0.703373 0.077521
vt 0.662614 0.148115
vt 0.653758 0.007808
vt 0.504446 0.001568
vt 0.508768 0.148115
vt 0.057300 0.444628
vt 0.013858 0.497375
vt 0.001539 0.953916
vt 0.052751 0.001763
vt 0.001518 0.053683
vt 0.930812 0.201511
vt 0.998137 0.327854
vt 0.998137 0.027702
vt 0.251540 0.115913
vt 0.153385 0.001765
vt 0.153385 0.252498
vt 0.244311 0.363077
vt 0.152806 0.460299
vt 0.111475 0.509415
vt 0.123144 0.963315
vt 0.147482 0.001732
vt 0.111475 0.069765
vt 0.788636 0.001647
vt 0.660745 0.073089
vt 0.977228 0.073089
vt 0.253726 0.251180
vt 0.351875 0.352053
vt 0.351875 0.111850
vt 0.255222 0.001766
vt 0.711259 0.077496
vt 0.773621 0.216162
vt 0.858749 0.077501
vt 0.354875 0.169630
vt 0.507081 0.187649
vt 0.502159 0.039686
vt 0.354875 0.001938
vt 0.108651 0.516207
vt 0.059472 0.480716
vt 0.060296 0.998429
vt 0.093555 0.025735
vt 0.060296 0.001748
vn -0.0831 0.9913 0.1019
vn 0.1808 0.7076 0.6831
vn 0.0826 0.9587 -0.2722
vn -0.6701 0.7295 -0.1371
vn -0.0908 0.9957 0.0190
vn 0.0687 0.7373 0.6720
vn -0.0515 0.9976 0.0466
vn 0.6919 0.7155 -0.0964
vn -0.1902 0.9794 0.0674
vn -0.1185 0.7378 -0.6646
vn 0.1372 0.9875 -0.0770
vn -0.2444 0.7359 -0.6314
vn 0.1359 0.9804 0.1429
vn 0.6474 0.7186 -0.2541
vn 0.0839 -0.9913 -0.1011
vn -0.1810 -0.7073 -0.6834
vn -0.0828 -0.9582 0.2740
vn 0.6703 -0.7295 0.1364
vn 0.0836 -0.9963 -0.0174
vn -0.0656 -0.7369 -0.6728
vn 0.0518 -0.9975 -0.0483
vn -0.6919 -0.7154 0.0971
vn 0.1964 -0.9781 -0.0688
vn 0.1156 -0.7375 0.6654
vn -0.1364 -0.9878 0.0754
vn 0.2439 -0.7356 0.6319
vn -0.1355 -0.9805 -0.1427
vn -0.6475 -0.7185 0.2539
vn 0.2838 -0.7001 0.6552
vn 0.8330 0.0466 -0.5513
vn -0.8946 -0.0211 0.4464
vn 0.8986 0.0148 -0.4385
vn -0.9457 0.0231 0.3241
vn -0.9674 -0.2131 0.1372
vn 0.1601 0.3163 0.9351
vn 0.2496 -0.2905 -0.9237
vn -0.2493 0.3485 0.9036
vn 0.1156 -0.2126 -0.9703
vn 0.0751 -0.6322 0.7712
vn 0.9813 -0.0087 -0.1924
vn -0.9677 0.1873 0.1688
vn 0.9827 -0.1263 -0.1351
vn -0.9866 0.1392 -0.0851
vn 0.9612 -0.2175 0.1698
vn -0.1362 0.1129 -0.9842
vn -0.0415 -0.1456 0.9885
vn 0.1239 0.1916 -0.9736
vn -0.1378 -0.0396 0.9897
vn 0.1402 -0.5870 -0.7973
vn -0.9778 -0.0351 0.2066
vn 0.9657 0.1952 -0.1713
vn -0.9800 -0.1453 0.1360
vn 0.9860 0.1577 0.0550
vn -0.0335 -0.6453 -0.7632
vn -0.8393 0.0351 0.5425
vn 0.9221 0.0314 -0.3857
vn -0.9202 -0.0240 0.3907
vn 0.9577 0.0320 -0.2861
vn 0.7919 -0.0463 -0.6089
vn -0.7939 0.1575 -0.5873
vn 0.5553 -0.0967 0.8260
vn -0.4287 0.1134 -0.8963
vn 0.5315 -0.1501 0.8337
usemtl Grass
s off
f 4/1/1 2/2/1 5/3/1
f 1/4/2 4/5/2 5/6/2 3/7/2
f 9/8/3 7/9/3 10/10/3
f 6/11/4 9/8/4 10/10/4 8/12/4
f 14/13/5 12/14/5 15/15/5
f 11/16/6 14/17/6 15/18/6 13/19/6
f 19/20/7 17/21/7 20/22/7
f 16/23/8 19/20/8 20/22/8 18/24/8
f 24/25/9 22/26/9 25/27/9
f 21/28/10 24/29/10 25/30/10 23/31/10
f 29/32/11 27/33/11 30/34/11
f 26/35/12 29/36/12 30/37/12 28/38/12
f 34/39/13 32/40/13 35/41/13
f 31/42/14 34/39/14 35/41/14 33/43/14
f 39/44/15 40/45/15 37/46/15
f 36/47/16 38/48/16 40/49/16 39/50/16
f 44/51/17 45/52/17 42/53/17
f 41/54/18 43/55/18 45/52/18 44/51/18
f 49/56/19 50/57/19 47/58/19
f 46/59/20 48/60/20 50/61/20 49/62/20
f 54/63/21 55/64/21 52/65/21
f 51/66/22 53/67/22 55/64/22 54/63/22
f 59/68/23 60/69/23 57/70/23
f 56/71/24 58/72/24 60/73/24 59/74/24
f 64/75/25 65/76/25 62/77/25
f 61/78/26 63/79/26 65/80/26 64/81/26
f 69/82/27 70/83/27 67/84/27
f 66/85/28 68/86/28 70/83/28 69/82/28
f 1/4/29 3/7/29 38/48/29 36/47/29
f 2/2/30 4/1/30 39/44/30 37/46/30
f 3/7/31 5/6/31 40/49/31 38/48/31
f 4/5/32 1/4/32 36/47/32 39/50/32
f 5/3/33 2/2/33 37/46/33 40/45/33
f 6/11/34 8/12/34 43/55/34 41/54/34
f 7/9/35 9/8/35 44/51/35 42/53/35
f 8/12/36 10/10/36 45/52/36 43/55/36
f 9/8/37 6/11/37 41/54/37 44/51/37
f 10/10/38 7/9/38 42/53/38 45/52/38
f 11/16/39 13/19/39 48/60/39 46/59/39
f 12/14/40 14/13/40 49/56/40 47/58/40
f 13/19/41 15/18/41 50/61/41 48/60/41
f 14/17/42 11/16/42 46/59/42 49/62/42
f 15/15/43 12/14/43 47/58/43 50/57/43
f 16/23/44 18/24/44 53/67/44 51/66/44
f 17/21/45 19/20/45 54/63/45 52/65/45
f 18/24/46 20/22/46 55/64/46 53/67/46
f 19/20/47 16/23/47 51/66/47 54/63/47
f 20/22/48 17/21/48 52/65/48 55/64/48
f 21/28/49 23/31/49 58/72/49 56/71/49
f 22/26/50 24/25/50 59/68/50 57/70/50
f 23/31/51 25/30/51 60/73/51 58/72/51
f 24/29/52 21/28/52 56/71/52 59/74/52
f 25/27/53 22/26/53 57/70/53 60/69/53
f 26/35/54 28/38/54 63/79/54 61/78/54
f 27/33/55 29/32/55 64/75/55 62/77/55
f 28/38/56 30/37/56 65/80/56 63/79/56
f 29/36/57 26/35/57 61/78/57 64/81/57
f 30/34/58 27/33/58 62/77/58 65/76/58
f 31/42/59 33/43/59 68/86/59 66/85/59
f 32/40/60 34/39/60 69/82/60 67/84/60
f 33/43/61 35/41/61 70/83/61 68/86/61
f 34/39/62 31/42/62 66/85/62 69/82/62
f 35/41/63 32/40/63 67/84/63 70/83/63
