# Blender v2.93.4 OBJ File: 'IslandSkyboxOneIsland.blend'
# www.blender.org
mtllib StoneSlab.mtl
o Cube.010_Cube.012
v -0.092318 3.432126 2.621068
v -0.092318 3.743287 2.621068
v -1.358043 3.432126 0.506516
v -1.358043 3.743287 0.506516
v -1.175683 3.432126 2.644816
v -1.316321 3.432126 2.409862
v -1.316321 3.743287 2.409862
v -1.175683 3.743287 2.644816
v -0.393258 3.432126 0.485368
v -0.129473 3.432126 0.926054
v -0.129473 3.743287 0.926054
v -0.393258 3.743287 0.485368
vt 0.010003 0.380829
vt 0.359962 0.380829
vt 0.359962 0.691902
vt 0.010003 0.691902
vt 0.359965 0.989997
vt 0.010006 0.989997
vt 0.010006 0.712972
vt 0.359965 0.712972
vt 0.359967 0.359966
vt 0.048893 0.359966
vt 0.010008 0.321081
vt 0.010008 0.010008
vt 0.287033 0.010008
vt 0.359967 0.082941
vt 0.379977 0.380829
vt 0.729936 0.380829
vt 0.729936 0.691903
vt 0.379977 0.691903
vt 0.928095 0.010008
vt 0.928095 0.359966
vt 0.873103 0.359966
vt 0.873103 0.010008
vt 0.379971 0.712971
vt 0.729929 0.712971
vt 0.729929 0.989996
vt 0.379971 0.989996
vt 0.853085 0.010001
vt 0.853085 0.359960
vt 0.749941 0.359960
vt 0.749941 0.010001
vt 0.418863 0.359960
vt 0.379978 0.321075
vt 0.379978 0.010001
vt 0.657003 0.010001
vt 0.729937 0.082935
vt 0.729937 0.359960
vn -0.9998 0.0000 0.0219
vn 0.9998 0.0000 -0.0219
vn 0.0000 1.0000 -0.0000
vn 0.0219 0.0000 0.9998
vn -0.8580 0.0000 0.5136
vn -0.0219 0.0000 -0.9998
vn 0.8580 0.0000 -0.5136
vn 0.0000 -1.0000 0.0000
usemtl Slab1
s off
f 6/1/1 7/2/1 4/3/1 3/4/1
f 10/5/2 11/6/2 2/7/2 1/8/2
f 4/9/3 7/10/3 8/11/3 2/12/3 11/13/3 12/14/3
f 1/15/4 2/16/4 8/17/4 5/18/4
f 7/19/5 6/20/5 5/21/5 8/22/5
f 3/23/6 4/24/6 12/25/6 9/26/6
f 11/27/7 10/28/7 9/29/7 12/30/7
f 5/31/8 6/32/8 3/33/8 9/34/8 10/35/8 1/36/8
