# Blender v2.93.4 OBJ File: 'IslandSkyboxOneIsland.blend'
# www.blender.org
mtllib StoneWall1.mtl
o Cube.009_Cube.013
v 0.599246 3.732173 1.535882
v 0.230562 3.732173 1.535882
v 0.230562 3.732173 0.250207
v 0.599246 4.385170 1.535882
v 0.599246 3.732173 0.571625
v 0.599246 3.732173 0.893044
v 0.599246 3.732173 1.214463
v 0.230562 3.732173 1.214463
v 0.230562 3.732173 0.893044
v 0.230562 3.732173 0.571625
v 0.599246 4.385170 1.214463
v 0.599246 4.385170 0.893044
v 0.599246 4.385170 0.571625
v 0.230562 4.162773 0.892258
v 0.379003 4.385170 1.535882
v 0.230562 4.122259 1.535882
v 0.230562 4.122259 0.250207
v 0.379003 4.385170 0.250207
v 0.379003 4.385170 0.571625
v 0.230562 4.122259 0.571625
v 0.230562 4.122259 1.214463
v 0.379003 4.385170 1.214463
v 0.519344 3.732173 0.250207
v 0.599246 3.732173 0.528842
v 0.599246 4.385170 0.528842
v 0.519344 4.385170 0.250207
vt 0.788087 0.823768
vt 0.709705 0.761263
vt 0.695763 0.637535
vt 0.777022 0.628378
vt 0.798903 0.822549
vt 0.683139 0.009649
vt 0.683139 0.205048
vt 0.551442 0.336745
vt 0.356042 0.336745
vt 0.356042 0.009649
vt 0.582533 0.634694
vt 0.582533 0.830094
vt 0.500759 0.830094
vt 0.500759 0.634694
vt 0.336742 0.438658
vt 0.009646 0.438658
vt 0.009646 0.356884
vt 0.336742 0.356884
vt 0.800362 0.071343
vt 0.778303 0.265494
vt 0.697052 0.256262
vt 0.719111 0.062112
vt 0.336742 0.613091
vt 0.009646 0.613091
vt 0.009646 0.602206
vt 0.336742 0.602206
vt 0.881613 0.080575
vt 0.881613 0.426121
vt 0.336745 0.091418
vt 0.009649 0.091418
vt 0.009649 0.009644
vt 0.265856 0.009644
vt 0.336745 0.080533
vt 0.009646 0.520432
vt 0.336742 0.520432
vt 0.880163 0.467845
vt 0.880163 0.813392
vt 0.419185 0.614400
vt 0.418985 0.830094
vt 0.337211 0.830094
vt 0.337211 0.634694
vt 0.336745 0.336740
vt 0.009649 0.336740
vt 0.009649 0.254966
vt 0.336745 0.254966
vt 0.009649 0.173192
vt 0.336745 0.173192
vt 0.367606 0.908583
vt 0.181359 0.908583
vt 0.195709 0.825756
vt 0.091420 0.819638
vt 0.091420 0.633391
vt 0.174641 0.805288
vt 0.009646 0.819638
vt 0.009646 0.633391
vt 0.181359 0.990357
vt 0.367606 0.990357
vt 0.255437 0.830094
vt 0.255437 0.634694
vt 0.601827 0.844310
vt 0.928923 0.844310
vt 0.928923 0.944563
vt 0.601827 0.944563
vt 0.756395 0.610679
vt 0.500188 0.610679
vt 0.500188 0.415279
vt 0.631885 0.283583
vt 0.756395 0.283583
vn 0.0000 1.0000 0.0000
vn 0.0000 0.0000 1.0000
vn -1.0000 0.0000 0.0000
vn 1.0000 -0.0000 0.0000
vn -0.3431 0.9094 -0.2351
vn 0.0000 -1.0000 -0.0000
vn -0.3436 0.9091 0.2355
vn -0.8691 0.4907 -0.0620
vn -0.8691 0.4907 0.0617
vn -0.8708 0.4917 0.0000
vn 0.9613 -0.0000 -0.2757
vn 0.0000 0.0000 -1.0000
usemtl Block3
s off
f 25/1/1 26/2/1 18/3/1 19/4/1 13/5/1
f 4/6/2 15/7/2 16/8/2 2/9/2 1/10/2
f 17/11/3 3/12/3 10/13/3 20/14/3
f 7/15/4 11/16/4 4/17/4 1/18/4
f 11/19/1 22/20/1 15/21/1 4/22/1
f 24/23/4 25/24/4 13/25/4 5/26/4
f 12/27/5 14/28/5 22/20/5 11/19/5
f 5/29/6 10/30/6 3/31/6 23/32/6 24/33/6
f 5/26/4 13/25/4 12/34/4 6/35/4
f 6/35/4 12/34/4 11/16/4 7/15/4
f 13/5/7 19/4/7 14/36/7 12/37/7
f 14/38/3 20/14/3 10/13/3 9/39/3
f 14/38/3 9/39/3 8/40/3 21/41/3
f 1/42/6 2/43/6 8/44/6 7/45/6
f 7/45/6 8/44/6 9/46/6 6/47/6
f 6/47/6 9/46/6 10/30/6 5/29/6
f 19/48/8 20/49/8 14/50/8
f 21/51/9 22/52/9 14/53/9
f 21/51/10 16/54/10 15/55/10 22/52/10
f 17/56/10 20/49/10 19/48/10 18/57/10
f 21/41/3 8/40/3 2/58/3 16/59/3
f 25/60/11 24/61/11 23/62/11 26/63/11
f 23/64/12 3/65/12 17/66/12 18/67/12 26/68/12
