# Blender v2.93.4 OBJ File: 'IslandSkyboxOneIsland.blend'
# www.blender.org
mtllib StoneWall3.mtl
o Cube.008_Cube.009
v 2.160228 3.655845 0.951471
v 1.791544 3.655845 0.951471
v 2.160228 3.655845 -0.334205
v 2.160228 4.308842 0.951471
v 2.160228 4.308842 -0.334205
v 1.791544 3.655845 -0.159441
v 1.841660 3.655845 -0.334205
v 1.841660 4.308842 -0.334205
v 1.883360 4.308842 0.951471
v 1.791544 4.146223 0.951471
v 1.791544 4.146223 -0.159441
v 1.841660 4.308842 -0.334205
vt 0.374285 0.672301
vt 0.374285 0.375382
vt 0.717914 0.375382
vt 0.717914 0.672301
vt 0.946596 0.010222
vt 0.946596 0.268275
vt 0.880538 0.353851
vt 0.880538 0.353851
vt 0.880538 0.010222
vt 0.698790 0.692861
vt 0.956844 0.692861
vt 0.956844 0.989780
vt 0.698790 0.989780
vt 0.353844 0.010216
vt 0.353844 0.353845
vt 0.010215 0.353845
vt 0.010215 0.010216
vt 0.374274 0.010215
vt 0.717904 0.010215
vt 0.717904 0.307134
vt 0.671193 0.353845
vt 0.374274 0.353844
vt 0.334730 0.985549
vt 0.334730 0.688630
vt 0.334730 0.688630
vt 0.678359 0.727496
vt 0.678359 0.985549
vt 0.859359 0.010218
vt 0.835175 0.355192
vt 0.738337 0.307138
vt 0.738337 0.010218
vt 0.353845 0.375381
vt 0.353845 0.633435
vt 0.268269 0.719011
vt 0.010216 0.719011
vt 0.010216 0.375381
vn 0.0000 0.0000 -1.0000
vn -0.9613 0.0000 -0.2757
vn -1.0000 0.0000 0.0000
vn 1.0000 0.0000 0.0000
vn 0.0000 -1.0000 0.0000
vn 0.0000 1.0000 0.0000
vn -0.9133 0.4071 0.0159
vn -0.0000 0.0000 1.0000
usemtl Block1
s off
f 3/1/1 7/2/1 8/3/1 5/4/1
f 6/5/2 11/6/2 12/7/2 8/8/2 7/9/2
f 11/10/3 6/11/3 2/12/3 10/13/3
f 3/14/4 5/15/4 4/16/4 1/17/4
f 1/18/5 2/19/5 6/20/5 7/21/5 3/22/5
f 5/23/6 8/24/6 12/25/6 9/26/6 4/27/6
f 9/28/7 12/29/7 11/30/7 10/31/7
f 4/32/8 9/33/8 10/34/8 2/35/8 1/36/8
