# Blender v2.93.5 OBJ File: 'CurveSCreen.blend'
# www.blender.org
mtllib CurveSreenv1.mtl
o Plane_Plane.001
v 0.105993 1.005529 1.749731
v 0.140815 -0.994471 1.749731
v 0.105993 1.005529 -1.749731
v 0.140815 -0.994471 -1.749731
v 0.068891 0.004730 1.749731
v 0.068891 0.004730 -1.749731
v -0.041478 1.005529 1.459898
v -0.041478 1.005529 -1.459898
v -0.234665 1.005529 0.937312
v -0.336229 1.005529 0.322976
v -0.336229 1.005529 -0.322976
v -0.234665 1.005529 -0.937312
v -0.006656 -0.994471 -1.459897
v -0.006656 -0.994471 1.459897
v -0.199843 -0.994471 -0.937312
v -0.301408 -0.994471 -0.322976
v -0.301408 -0.994471 0.322976
v -0.199843 -0.994471 0.937312
v -0.078581 0.004730 1.459897
v -0.078581 0.004730 -1.459897
v -0.271768 0.004730 0.937312
v -0.373332 0.004730 0.322976
v -0.373332 0.004730 -0.322976
v -0.271768 0.004730 -0.937312
v 0.101212 -0.494471 1.749731
v 0.063069 0.505529 -1.749731
v 0.063069 0.505529 1.749731
v 0.101212 -0.494471 -1.749731
v -0.175174 0.004730 -1.198605
v -0.084403 0.505529 -1.459897
v -0.138072 1.005529 -1.198605
v -0.277590 0.505529 -0.937312
v -0.322550 0.004730 -0.630144
v -0.285447 1.005529 -0.630144
v -0.379154 0.505529 -0.322976
v -0.373332 0.004730 -0.000000
v -0.336229 1.005529 0.000000
v -0.379154 0.505529 0.322976
v -0.322550 0.004730 0.630144
v -0.285447 1.005529 0.630144
v -0.277590 0.505529 0.937312
v -0.175174 0.004730 1.198605
v -0.138072 1.005529 1.198605
v -0.084403 0.505529 1.459897
v -0.103250 -0.994471 -1.198605
v -0.046260 -0.494471 -1.459897
v -0.239447 -0.494471 -0.937312
v -0.250626 -0.994471 -0.630144
v -0.341011 -0.494471 -0.322976
v -0.301408 -0.994471 0.000000
v -0.341011 -0.494471 0.322976
v -0.250626 -0.994471 0.630144
v -0.239447 -0.494471 0.937312
v -0.103250 -0.994471 1.198605
v -0.046260 -0.494471 1.459897
v 0.032258 1.005529 1.604814
v -0.004845 0.004730 1.604814
v 0.032258 1.005529 -1.604814
v -0.004845 0.004730 -1.604814
v 0.067079 -0.994471 -1.604814
v 0.067079 -0.994471 1.604814
v -0.010667 0.505529 1.604814
v -0.142853 -0.494471 1.198605
v -0.290229 -0.494471 0.630144
v -0.341011 -0.494471 0.000000
v -0.290229 -0.494471 -0.630144
v -0.142853 -0.494471 -1.198605
v -0.180996 0.505529 1.198605
v -0.328372 0.505529 0.630144
v -0.379154 0.505529 0.000000
v -0.328372 0.505529 -0.630144
v -0.180996 0.505529 -1.198605
v -0.010667 0.505529 -1.604814
v 0.027476 -0.494471 -1.604814
v 0.027476 -0.494471 1.604814
vt 0.750000 0.041411
vt 1.000000 0.041411
vt 1.000000 0.082822
vt 0.750000 0.082822
vt 0.750000 0.958589
vt 1.000000 0.958589
vt 1.000000 1.000000
vt 0.750000 1.000000
vt 0.250000 0.958589
vt 0.500000 0.958589
vt 0.500000 1.000000
vt 0.250000 1.000000
vt 0.250000 0.851539
vt 0.000000 0.851539
vt 0.000000 0.785901
vt 0.250000 0.785900
vt 0.250000 0.724325
vt 0.000000 0.724325
vt 0.000000 0.662749
vt 0.250000 0.662749
vt 0.250000 0.500000
vt 0.000000 0.500000
vt 0.000000 0.337251
vt 0.250000 0.337251
vt 0.250000 0.275675
vt 0.000000 0.275675
vt 0.000000 0.214099
vt 0.250000 0.214099
vt 0.250000 0.148461
vt 0.000000 0.148461
vt 0.000000 0.082822
vt 0.250000 0.082822
vt 0.750000 0.851539
vt 0.500000 0.851539
vt 0.500000 0.785900
vt 0.750000 0.785900
vt 0.750000 0.724325
vt 0.500000 0.724325
vt 0.500000 0.662749
vt 0.750000 0.662749
vt 0.750000 0.500000
vt 0.500000 0.500000
vt 0.500000 0.337251
vt 0.750000 0.337251
vt 0.750000 0.275675
vt 0.500000 0.275675
vt 0.500000 0.214099
vt 0.750000 0.214099
vt 0.750000 0.148461
vt 0.500000 0.148461
vt 0.500000 0.082822
vt 0.250000 0.041411
vt 0.500000 0.041411
vt 0.000000 0.041411
vt 0.000000 0.000000
vt 0.250000 0.000000
vt 0.500000 0.000000
vt 1.000000 0.148461
vt 1.000000 0.214099
vt 1.000000 0.275675
vt 1.000000 0.337251
vt 1.000000 0.500000
vt 1.000000 0.662749
vt 1.000000 0.724325
vt 1.000000 0.785901
vt 1.000000 0.851539
vt 1.000000 0.917178
vt 0.750000 0.917178
vt 0.500000 0.917178
vt 0.250000 0.917178
vt 0.000000 0.917178
vt 0.000000 0.958589
vt 0.000000 1.000000
vt 0.750000 0.000000
vt 1.000000 0.000000
vn 0.8894 0.0640 -0.4525
vn 0.8890 0.0704 -0.4523
vn 0.9133 0.0723 -0.4008
vn 0.9142 0.0658 -0.3998
vn 0.8894 0.0640 0.4525
vn 0.8890 0.0704 0.4523
vn 0.8894 0.0641 0.4525
vn 0.8908 -0.0330 0.4532
vn 0.8907 0.0340 0.4532
vn 0.8907 0.0342 0.4532
vn 0.8907 -0.0334 0.4532
vn 0.9374 -0.0347 0.3465
vn 0.9349 -0.0802 0.3456
vn 0.9630 -0.0826 0.2565
vn 0.9662 -0.0357 0.2552
vn 0.9859 -0.0365 0.1630
vn 0.9831 -0.0844 0.1625
vn 0.9930 -0.0852 0.0819
vn 0.9960 -0.0368 0.0815
vn 0.9993 -0.0370 0.0000
vn 0.9963 -0.0855 0.0000
vn 0.9930 -0.0852 -0.0819
vn 0.9960 -0.0368 -0.0815
vn 0.9859 -0.0365 -0.1630
vn 0.9831 -0.0844 -0.1625
vn 0.9630 -0.0826 -0.2565
vn 0.9662 -0.0357 -0.2552
vn 0.9374 -0.0347 -0.3465
vn 0.9349 -0.0802 -0.3456
vn 0.9128 -0.0783 -0.4007
vn 0.9159 -0.0339 -0.3999
vn 0.9358 0.0674 0.3459
vn 0.9373 0.0358 0.3465
vn 0.9661 0.0368 0.2555
vn 0.9643 0.0694 0.2553
vn 0.9841 0.0708 0.1627
vn 0.9859 0.0376 0.1630
vn 0.9959 0.0379 0.0816
vn 0.9941 0.0715 0.0816
vn 0.9974 0.0718 0.0000
vn 0.9993 0.0381 0.0000
vn 0.9959 0.0379 -0.0816
vn 0.9941 0.0715 -0.0816
vn 0.9841 0.0708 -0.1627
vn 0.9859 0.0376 -0.1630
vn 0.9661 0.0368 -0.2555
vn 0.9643 0.0694 -0.2553
vn 0.9358 0.0674 -0.3459
vn 0.9373 0.0358 -0.3465
vn 0.9157 0.0349 -0.4002
vn 0.8908 -0.0330 -0.4532
vn 0.8907 0.0340 -0.4532
vn 0.8886 -0.0763 -0.4522
vn 0.8907 -0.0334 -0.4532
vn 0.8907 0.0342 -0.4532
vn 0.9354 0.0741 -0.3458
vn 0.9635 0.0763 -0.2565
vn 0.9836 0.0779 -0.1626
vn 0.9935 0.0787 -0.0819
vn 0.9969 0.0790 0.0000
vn 0.9935 0.0787 0.0819
vn 0.9836 0.0779 0.1626
vn 0.9635 0.0763 0.2565
vn 0.9354 0.0741 0.3458
vn 0.9133 0.0723 0.4008
vn 0.9142 0.0658 0.3998
vn 0.9157 0.0349 0.4002
vn 0.9159 -0.0339 0.3999
vn 0.9128 -0.0783 0.4007
vn 0.8886 -0.0763 0.4522
vn 0.8894 0.0641 -0.4525
usemtl None
s 1
f 75/1/1 61/2/2 14/3/3 55/4/4
f 74/5/5 60/6/6 4/7/6 28/8/7
f 73/9/8 59/10/9 6/11/10 26/12/11
f 72/13/12 31/14/13 12/15/14 32/16/15
f 71/17/16 34/18/17 11/19/18 35/20/19
f 70/21/20 37/22/21 10/23/22 38/24/23
f 69/25/24 40/26/25 9/27/26 41/28/27
f 68/29/28 43/30/29 7/31/30 44/32/31
f 67/33/32 29/34/33 24/35/34 47/36/35
f 66/37/36 33/38/37 23/39/38 49/40/39
f 65/41/40 36/42/41 22/43/42 51/44/43
f 64/45/44 39/46/45 21/47/46 53/48/47
f 63/49/48 42/50/49 19/51/50 55/4/4
f 62/52/51 57/53/52 19/51/50 44/32/31
f 56/54/53 62/52/51 44/32/31 7/31/30
f 1/55/53 27/56/54 62/52/51 56/54/53
f 27/56/54 5/57/55 57/53/52 62/52/51
f 54/58/56 63/49/48 55/4/4 14/3/3
f 18/59/57 53/48/47 63/49/48 54/58/56
f 53/48/47 21/47/46 42/50/49 63/49/48
f 52/60/58 64/45/44 53/48/47 18/59/57
f 17/61/59 51/44/43 64/45/44 52/60/58
f 51/44/43 22/43/42 39/46/45 64/45/44
f 50/62/60 65/41/40 51/44/43 17/61/59
f 16/63/61 49/40/39 65/41/40 50/62/60
f 49/40/39 23/39/38 36/42/41 65/41/40
f 48/64/62 66/37/36 49/40/39 16/63/61
f 15/65/63 47/36/35 66/37/36 48/64/62
f 47/36/35 24/35/34 33/38/37 66/37/36
f 45/66/64 67/33/32 47/36/35 15/65/63
f 13/67/65 46/68/66 67/33/32 45/66/64
f 46/68/66 20/69/67 29/34/33 67/33/32
f 42/50/49 68/29/28 44/32/31 19/51/50
f 21/47/46 41/28/27 68/29/28 42/50/49
f 41/28/27 9/27/26 43/30/29 68/29/28
f 39/46/45 69/25/24 41/28/27 21/47/46
f 22/43/42 38/24/23 69/25/24 39/46/45
f 38/24/23 10/23/22 40/26/25 69/25/24
f 36/42/41 70/21/20 38/24/23 22/43/42
f 23/39/38 35/20/19 70/21/20 36/42/41
f 35/20/19 11/19/18 37/22/21 70/21/20
f 33/38/37 71/17/16 35/20/19 23/39/38
f 24/35/34 32/16/15 71/17/16 33/38/37
f 32/16/15 12/15/14 34/18/17 71/17/16
f 29/34/33 72/13/12 32/16/15 24/35/34
f 20/69/67 30/70/68 72/13/12 29/34/33
f 30/70/68 8/71/69 31/14/13 72/13/12
f 58/72/70 73/9/8 26/12/11 3/73/70
f 8/71/69 30/70/68 73/9/8 58/72/70
f 30/70/68 20/69/67 59/10/9 73/9/8
f 59/10/9 74/5/5 28/8/7 6/11/10
f 20/69/67 46/68/66 74/5/5 59/10/9
f 46/68/66 13/67/65 60/6/6 74/5/5
f 57/53/52 75/1/1 55/4/4 19/51/50
f 5/57/55 25/74/71 75/1/1 57/53/52
f 25/74/71 2/75/2 61/2/2 75/1/1
